Results
version=1
nRows=17
nColumns=38
inDegrees=yes
endheader
time	pelvis_tilt	pelvis_list	pelvis_rotation	pelvis_tx	pelvis_ty	pelvis_tz	hip_flexion_r	hip_adduction_r	hip_rotation_r	knee_angle_r	ankle_angle_r	subtalar_angle_r	mtp_angle_r	hip_flexion_l	hip_adduction_l	hip_rotation_l	knee_angle_l	ankle_angle_l	subtalar_angle_l	mtp_angle_l	lumbar_extension	lumbar_bending	lumbar_rotation	arm_flex_r	arm_add_r	arm_rot_r	elbow_flex_r	pro_sup_r	wrist_flex_r	wrist_dev_r	arm_flex_l	arm_add_l	arm_rot_l	elbow_flex_l	pro_sup_l	wrist_flex_l	wrist_dev_l
      0.00000000	     -0.95538706	      0.92745247	     -1.97831479	      0.90844041	      1.06635015	     -0.28607286	    -10.63235822	      0.40696244	      5.46948475	    -46.38406977	    -13.48702735	      0.00000000	      0.00000000	     13.85958713	      4.90263760	      8.34638239	    -16.46749756	     10.14602240	      0.00000000	      0.00000000	     -3.20610154	      0.03615008	      9.66431809	    -23.86623337	    -21.09835939	     -0.48248656	    116.27992013	     68.78181598	      0.00000000	      0.00000000	    -44.00214242	    -10.11500076	    -11.51259288	    123.13641816	     66.60116557	      0.00000000	      0.00000000
      0.00400000	     -0.53342477	      1.21620244	     -2.00896663	      0.90827421	      1.06357739	     -0.28644427	    -10.46148124	      0.04142789	      5.50668767	    -48.02888827	    -13.55523391	      0.00000000	      0.00000000	     13.70480320	      5.48611885	      8.24966792	    -17.99947749	     11.50574307	      0.00000000	      0.00000000	     -3.66313543	     -0.33899190	      9.27010069	    -23.85968361	    -20.95592046	     -0.41786467	    115.85466572	     68.84019076	      0.00000000	      0.00000000	    -43.38985488	    -10.29201930	    -11.44619178	    122.93971794	     66.47865738	      0.00000000	      0.00000000
      0.00800000	     -0.33797688	      1.54315182	     -2.09008325	      0.90795806	      1.06038915	     -0.28674977	     -9.97229943	     -0.37701440	      5.53372346	    -49.78250734	    -13.36374388	      0.00000000	      0.00000000	     13.89329031	      6.08700216	      7.95582830	    -19.77483751	     12.71988172	      0.00000000	      0.00000000	     -3.85971125	     -0.73543288	      8.95752272	    -23.89793636	    -20.72179749	     -0.61758511	    115.25595318	     70.40310006	      0.00000000	      0.00000000	    -42.93381358	    -10.58485529	    -10.96774834	    122.96402371	     63.79823252	      0.00000000	      0.00000000
      0.01200000	      0.11510124	      1.78893930	     -2.07677949	      0.90756192	      1.05750612	     -0.28712831	     -9.78007072	     -0.69582613	      5.47300736	    -51.43637199	    -13.26260365	      0.00000000	      0.00000000	     13.86442373	      6.63512014	      7.86011410	    -21.68505901	     13.82512768	      0.00000000	      0.00000000	     -4.40735630	     -1.06498184	      8.46350628	    -23.89715440	    -20.63359528	     -0.58333728	    114.83857523	     70.38675126	      0.00000000	      0.00000000	    -42.32513555	    -10.83909135	    -10.76402233	    122.76930823	     63.77645807	      0.00000000	      0.00000000
      0.01600000	      0.55334547	      2.07664904	     -2.06634658	      0.90702543	      1.05467765	     -0.28738858	     -9.57672750	     -1.08426236	      5.45114185	    -53.06986189	    -13.14352365	      0.00000000	      0.00000000	     14.03472160	      7.21350691	      7.55346092	    -23.86081584	     14.99661450	      0.00000000	      0.00000000	     -4.92855619	     -1.43504048	      8.00747989	    -23.85796065	    -20.35224983	     -0.59599012	    114.25963989	     70.34271903	      0.00000000	      0.00000000	    -41.64170927	    -11.11874637	    -10.58281870	    122.59256432	     63.73163637	      0.00000000	      0.00000000
      0.02000000	      0.78268201	      2.34028893	     -2.14255338	      0.90640510	      1.05147630	     -0.28747386	     -9.04065182	     -1.41406770	      5.49825705	    -54.88625844	    -12.68386550	      0.00000000	      0.00000000	     14.43170087	      7.68636497	      7.16059234	    -25.99483554	     16.06401712	      0.00000000	      0.00000000	     -5.19833824	     -1.84299693	      7.67880655	    -23.90662531	    -20.01776680	     -0.89218179	    113.70787036	     70.15787165	      0.00000000	      0.00000000	    -41.05378281	    -11.47036926	    -10.23405452	    122.47675306	     63.63545941	      0.00000000	      0.00000000
      0.02400000	      1.23643021	      2.51946696	     -2.19012646	      0.90576400	      1.04871184	     -0.28752510	     -8.75895051	     -1.68799791	      5.48558327	    -56.56665967	    -12.45653215	      0.00000000	      0.00000000	     14.52066784	      8.05515896	      6.82981939	    -28.03787142	     17.06171679	      0.00000000	      0.00000000	     -5.75864386	     -2.12619727	      7.26479793	    -23.86515475	    -19.70524900	     -0.90836453	    113.13985929	     70.07294767	      0.00000000	      0.00000000	    -40.31971070	    -11.73262949	    -10.08990570	    122.18601257	     63.56624824	      0.00000000	      0.00000000
      0.02800000	      1.30834430	      2.67590069	     -2.34160723	      0.90487686	      1.04546385	     -0.28721684	     -7.98316293	     -1.89209220	      5.65339613	    -58.32670180	    -11.95690450	      0.00000000	      0.00000000	     15.03012066	      8.37280331	      6.63458327	    -30.08120491	     18.01705482	      0.00000000	      0.00000000	     -5.88673974	     -2.42168778	      7.08062301	    -23.98004320	    -19.30055380	     -1.14967846	    112.46876309	     69.79924740	      0.00000000	      0.00000000	    -39.61314301	    -12.19095306	     -9.63391723	    121.95770930	     63.35953315	      0.00000000	      0.00000000
      0.03200000	      1.73006555	      2.83741238	     -2.37589304	      0.90431164	      1.04294394	     -0.28713796	     -7.67387396	     -2.10080816	      5.72767617	    -59.90051417	    -11.55445367	      0.00000000	      0.00000000	     14.95492384	      8.72077661	      6.65525006	    -31.77278747	     18.97920794	      0.00000000	      0.00000000	     -6.39473226	     -2.69618935	      6.66613793	    -24.03981450	    -19.14960952	     -1.16457057	    111.93223833	     69.71810210	      0.00000000	      0.00000000	    -38.80965212	    -12.49122364	     -9.46913402	    121.57436735	     63.28188928	      0.00000000	      0.00000000
      0.03600000	      2.09396090	      2.98989579	     -2.44198318	      0.90359460	      1.04047305	     -0.28692419	     -7.27220095	     -2.30404900	      5.80122456	    -61.41906737	    -11.10071834	      0.00000000	      0.00000000	     14.89887022	      9.03728742	      6.61350119	    -33.37704690	     19.91049358	      0.00000000	      0.00000000	     -6.89619388	     -3.00007539	      6.26350330	    -24.09225859	    -18.90775554	     -1.18385286	    111.37981192	     69.64727255	      0.00000000	      0.00000000	    -38.01184903	    -12.81071632	     -9.27534320	    121.21905906	     63.21961662	      0.00000000	      0.00000000
      0.04000000	      2.03883702	      3.12937239	     -2.56293308	      0.90268350	      1.03754597	     -0.28653421	     -6.31785698	     -2.42850916	      6.00804705	    -63.09989464	    -10.23696502	      0.00000000	      0.00000000	     15.18265422	      9.27090522	      6.51495217	    -34.71690487	     20.69171448	      0.00000000	      0.00000000	     -6.88220029	     -3.22975059	      6.17595248	    -24.43428545	    -18.34551747	     -1.73530332	    110.74826720	     69.38927703	      0.00000000	      0.00000000	    -37.08046919	    -13.48415798	     -8.51139961	    120.70451281	     63.00250299	      0.00000000	      0.00000000
      0.04400000	      2.31930331	      3.24928695	     -2.63215608	      0.90210482	      1.03534900	     -0.28632212	     -5.82357186	     -2.58583322	      6.09975602	    -64.56066318	     -9.39121180	      0.00000000	      0.00000000	     14.92927565	      9.51589940	      6.50461528	    -35.77902456	     21.52803815	      0.00000000	      0.00000000	     -7.26596422	     -3.44737576	      5.78554430	    -24.58228152	    -18.05254019	     -1.85988443	    110.25198267	     69.27994064	      0.00000000	      0.00000000	    -36.28594139	    -13.83501890	     -8.23469394	    120.23165681	     62.90317605	      0.00000000	      0.00000000
      0.04800000	      2.58900808	      3.39001407	     -2.73204259	      0.90137671	      1.03342669	     -0.28614877	     -5.25694877	     -2.76162437	      6.21333043	    -65.98771747	     -8.72288436	      0.00000000	      0.00000000	     14.59093358	      9.74229367	      6.34688832	    -36.64119187	     22.23198779	      0.00000000	      0.00000000	     -7.66435446	     -3.68261584	      5.41113277	    -24.73788054	    -17.77107719	     -1.88803137	    109.77373331	     69.23625084	      0.00000000	      0.00000000	    -35.48751591	    -14.15508209	     -7.97554182	    119.76803036	     62.84598039	      0.00000000	      0.00000000
      0.05200000	      2.61194514	      3.61906185	     -2.94813215	      0.90069085	      1.03126934	     -0.28586558	     -4.37322592	     -3.04218877	      6.47316968	    -67.44752693	     -7.81124146	      0.00000000	      0.00000000	     14.40896585	      9.98370422	      5.97887295	    -37.24164227	     22.90303156	      0.00000000	      0.00000000	     -7.74395975	     -3.98445220	      5.40905612	    -25.17697163	    -17.20490450	     -2.52311876	    109.32817132	     69.12453811	      0.00000000	      0.00000000	    -34.47087415	    -14.80826634	     -7.20708220	    119.19727806	     62.78184502	      0.00000000	      0.00000000
      0.05600000	      2.72885556	      3.75596698	     -3.08155719	      0.90004119	      1.02949354	     -0.28555655	     -3.61553218	     -3.21132909	      6.62109121	    -68.78346059	     -6.91292316	      0.00000000	      0.00000000	     14.05836351	     10.15468785	      5.75313160	    -37.77252134	     23.55140713	      0.00000000	      0.00000000	     -7.94056233	     -4.18786081	      5.16572616	    -25.50295431	    -16.78472122	     -2.87474193	    108.96221403	     69.05806070	      0.00000000	      0.00000000	    -33.58170726	    -15.24623029	     -6.81608877	    118.71404398	     62.75270366	      0.00000000	      0.00000000
      0.06000000	      2.73623491	      3.88455109	     -3.37835726	      0.89931533	      1.02778209	     -0.28514515	     -2.67596644	     -3.38273052	      6.95789607	    -70.11265452	     -5.98875399	      0.00000000	      0.00000000	     13.73169191	     10.27107386	      5.35854905	    -38.08998315	     24.24433421	      0.00000000	      0.00000000	     -8.02164863	     -4.36814300	      5.13488734	    -25.89878111	    -16.32792271	     -3.43266081	    108.64229179	     68.87345139	      0.00000000	      0.00000000	    -32.63410564	    -15.67677487	     -6.36192758	    118.22764467	     62.80652381	      0.00000000	      0.00000000
      0.06400000	      2.79401840	      4.02604376	     -3.62981189	      0.89859966	      1.02629181	     -0.28469599	     -1.79869985	     -3.55064161	      7.21486167	    -71.37809995	     -4.98036741	      0.00000000	      0.00000000	     13.30491879	     10.41589471	      5.04634053	    -38.33555486	     24.83335985	      0.00000000	      0.00000000	     -8.14520554	     -4.57900178	      4.98130609	    -26.23292466	    -15.90402808	     -3.76405151	    108.31783460	     68.71128063	      0.00000000	      0.00000000	    -31.80394901	    -16.06918982	     -6.03786003	    117.83729234	     62.91712735	      0.00000000	      0.00000000
